# xmcd CD database file
#
# Track frame offsets:
#	150
#	18812
#	31422
#	35690
#	48760
#	57837
#	67082
#	102947
#	137502
#	160135
#	173557
#	186452
#
# Disc length: 2516 seconds
#
# Revision: 4
# Processed by: cddbd v1.5.2PL0 Copyright (c) Steve Scherf et al.
# Submitted via: CDex 1.51
#
DISCID=9a09d20c
DTITLE=Billy Joe Shaver and Kinky Friedman - Live From Down Under
DYEAR=2002
DGENRE=Country
TTITLE0=Asshole From El Paso
TTITLE1=Ride Me Down Easy
TTITLE2=I Couldn't Be Me Without You
TTITLE3=Because You Asked Me To
TTITLE4=Live Forever
TTITLE5=You Wouldn't Know Love If You Fell In It
TTITLE6=Ride 'Em Jewboy
TTITLE7=They Ain't Making Jews Like Jesus Anymore
TTITLE8=Keep On The Sunny Side
TTITLE9=Old Five And Dimers
TTITLE10=Try Try Again
TTITLE11=Thanks And Goodbye
EXTD=YEAR: 2002
EXTT0=
EXTT1=
EXTT2=
EXTT3=
EXTT4=
EXTT5=
EXTT6=
EXTT7=
EXTT8=
EXTT9=
EXTT10=
EXTT11=
PLAYORDER=
